<svg width="142" height="142" viewBox="0 0 142 142" fill="none" xmlns="http://www.w3.org/2000/svg">
<g clip-path="url(#clip0_2001_2)">
<path d="M70.7162 5.90138C65.8094 5.86741 61.2438 8.40724 58.6854 12.5943L23.1142 67.0955C15.8272 76.9136 17.8792 90.78 27.6972 98.0669C31.5141 100.9 36.1417 102.429 40.8952 102.428L50.5547 102.431C51.0037 102.428 51.435 102.607 51.7508 102.926L60.659 111.834C66.2075 117.37 75.1895 117.37 80.738 111.834L89.6462 102.926C89.9642 102.608 90.3955 102.429 90.8452 102.428H100.502C106.36 102.448 111.984 100.131 116.129 95.9917C117.838 94.2804 119.257 92.3023 120.33 90.1353C124.065 82.6872 123.272 73.7687 118.283 67.0958L82.853 12.736C80.2951 8.47739 75.6837 5.88066 70.7162 5.90138ZM32.258 84.5762C30.5851 81.302 30.9595 77.3554 33.2184 74.4543C33.3087 74.3364 33.3941 74.2157 33.4747 74.092L64.4711 26.5989L64.4503 97.9503L60.5883 94.0883C57.9306 91.4176 54.3137 89.9228 50.546 89.9376L40.8954 89.9318C37.2213 89.9725 33.855 87.8855 32.258 84.5762ZM107.937 74.1067C108.017 74.2335 108.105 74.3512 108.193 74.4691C111.413 78.7122 110.584 84.7621 106.341 87.982C104.664 89.254 102.618 89.9431 100.514 89.9436H90.8629C87.0937 89.9293 83.4759 91.4252 80.8176 94.0973L76.9556 97.9593L76.9468 26.596L107.937 74.1067Z" fill="black"/>
</g>
<defs>
<clipPath id="clip0_2001_2">
<rect width="100" height="100" fill="white" transform="translate(0 70.7107) rotate(-45)"/>
</clipPath>
</defs>
</svg>
